<svg width="1920" height="1080" viewBox="0 0 1920 1080" fill="none" xmlns="http://www.w3.org/2000/svg">
<g clip-path="url(#clip0_10_46)">
<rect width="1920" height="1080" fill="#030303"/>
<rect width="1920" height="1080" fill="url(#paint0_linear_10_46)"/>
<rect x="-51" y="247" width="848" height="30" fill="url(#paint1_linear_10_46)"/>
<rect x="-159" y="149" width="848" height="30" fill="url(#paint2_linear_10_46)"/>
<path d="M648.723 891.732C640.423 1084.85 477.14 1234.68 284.018 1226.38C90.897 1218.08 -58.931 1054.8 -50.6317 861.677C-42.3325 668.556 120.951 518.728 314.073 527.027C507.194 535.326 657.022 698.61 648.723 891.732ZM-4.45931 863.661C-11.6627 1031.28 118.382 1173.01 286.003 1180.21C453.624 1187.41 595.347 1057.37 602.55 889.747C609.754 722.126 479.709 580.403 312.088 573.2C144.467 565.996 2.74409 696.04 -4.45931 863.661Z" fill="url(#paint3_linear_10_46)"/>
<g filter="url(#filter0_d_10_46)">
<circle cx="301" cy="877" r="250" fill="url(#paint4_linear_10_46)" fill-opacity="0.5" shape-rendering="crispEdges"/>
</g>
<g filter="url(#filter1_d_10_46)">
<circle cx="1751.61" cy="479.605" r="250" transform="rotate(-87.033 1751.61 479.605)" fill="url(#paint5_linear_10_46)" fill-opacity="0.5" shape-rendering="crispEdges"/>
</g>
</g>
<defs>
<filter id="filter0_d_10_46" x="47" y="627" width="508" height="508" filterUnits="userSpaceOnUse" color-interpolation-filters="sRGB">
<feFlood flood-opacity="0" result="BackgroundImageFix"/>
<feColorMatrix in="SourceAlpha" type="matrix" values="0 0 0 0 0 0 0 0 0 0 0 0 0 0 0 0 0 0 127 0" result="hardAlpha"/>
<feOffset dy="4"/>
<feGaussianBlur stdDeviation="2"/>
<feComposite in2="hardAlpha" operator="out"/>
<feColorMatrix type="matrix" values="0 0 0 0 0 0 0 0 0 0 0 0 0 0 0 0 0 0 0.25 0"/>
<feBlend mode="normal" in2="BackgroundImageFix" result="effect1_dropShadow_10_46"/>
<feBlend mode="normal" in="SourceGraphic" in2="effect1_dropShadow_10_46" result="shape"/>
</filter>
<filter id="filter1_d_10_46" x="1497.6" y="229.599" width="508.012" height="508.012" filterUnits="userSpaceOnUse" color-interpolation-filters="sRGB">
<feFlood flood-opacity="0" result="BackgroundImageFix"/>
<feColorMatrix in="SourceAlpha" type="matrix" values="0 0 0 0 0 0 0 0 0 0 0 0 0 0 0 0 0 0 127 0" result="hardAlpha"/>
<feOffset dy="4"/>
<feGaussianBlur stdDeviation="2"/>
<feComposite in2="hardAlpha" operator="out"/>
<feColorMatrix type="matrix" values="0 0 0 0 0 0 0 0 0 0 0 0 0 0 0 0 0 0 0.25 0"/>
<feBlend mode="normal" in2="BackgroundImageFix" result="effect1_dropShadow_10_46"/>
<feBlend mode="normal" in="SourceGraphic" in2="effect1_dropShadow_10_46" result="shape"/>
</filter>
<linearGradient id="paint0_linear_10_46" x1="192" y1="-61.0096" x2="954.567" y2="1036.16" gradientUnits="userSpaceOnUse">
<stop stop-color="#8E3F57" stop-opacity="0.53"/>
<stop offset="1" stop-color="#946464" stop-opacity="0.5"/>
</linearGradient>
<linearGradient id="paint1_linear_10_46" x1="-398.59" y1="277" x2="413.452" y2="277" gradientUnits="userSpaceOnUse">
<stop stop-color="#8E3F57" stop-opacity="0.53"/>
<stop offset="1" stop-color="#A8967B"/>
</linearGradient>
<linearGradient id="paint2_linear_10_46" x1="-506.59" y1="179" x2="305.452" y2="179" gradientUnits="userSpaceOnUse">
<stop stop-color="#8E3F57" stop-opacity="0.53"/>
<stop offset="1" stop-color="#A8967B"/>
</linearGradient>
<linearGradient id="paint3_linear_10_46" x1="765.455" y1="470.639" x2="195.589" y2="1152.47" gradientUnits="userSpaceOnUse">
<stop stop-color="#A8967B"/>
<stop offset="1" stop-color="#946464" stop-opacity="0.5"/>
</linearGradient>
<linearGradient id="paint4_linear_10_46" x1="215.522" y1="952.665" x2="454.122" y2="698.643" gradientUnits="userSpaceOnUse">
<stop stop-color="#946464"/>
<stop offset="1" stop-color="#A8967B"/>
</linearGradient>
<linearGradient id="paint5_linear_10_46" x1="1666.13" y1="555.27" x2="1904.73" y2="301.248" gradientUnits="userSpaceOnUse">
<stop stop-color="#946464"/>
<stop offset="1" stop-color="#A8967B"/>
</linearGradient>
<clipPath id="clip0_10_46">
<rect width="1920" height="1080" fill="white"/>
</clipPath>
</defs>
</svg>
